HIERARCHY
ROOT Hips
{
	OFFSET 0.00000 0.00000 0.00000
	CHANNELS 6 Xposition Yposition Zposition Zrotation Yrotation Xrotation 
	JOINT LHipJoint
	{
		OFFSET 0 0 0
		CHANNELS 3 Zrotation Yrotation Xrotation
		JOINT LeftHip
		{
			OFFSET 1.75344 -1.53157 0.77399
			CHANNELS 3 Zrotation Yrotation Xrotation
			JOINT LeftKnee
			{
				OFFSET 2.25415 -6.19323 0.00000
				CHANNELS 3 Zrotation Yrotation Xrotation
				JOINT LeftAnkle
				{
					OFFSET 2.30342 -6.32861 0.00000
					CHANNELS 3 Zrotation Yrotation Xrotation
					JOINT LeftToe
					{
						OFFSET 0.10958 -0.30108 1.49206
						CHANNELS 3 Zrotation Yrotation Xrotation
						End Site
						{
							OFFSET 0.00000 -0.00000 0.77783
						}
					}
				}
			}
		}
	}
	JOINT RHipJoint
	{
		OFFSET 0 0 0
		CHANNELS 3 Zrotation Yrotation Xrotation
		JOINT RightHip
		{
			OFFSET -1.81912 -1.53156 0.77399
			CHANNELS 3 Zrotation Yrotation Xrotation
			JOINT RightKnee
			{
				OFFSET -2.22882 -6.12365 0.00000
				CHANNELS 3 Zrotation Yrotation Xrotation
				JOINT RightAnkle
				{
					OFFSET -2.21943 -6.09785 0.00000
					CHANNELS 3 Zrotation Yrotation Xrotation
					JOINT RightToe
					{
						OFFSET -0.18931 -0.52012 1.59379
						CHANNELS 3 Zrotation Yrotation Xrotation
						End Site
						{
							OFFSET -0.00000 -0.00000 0.84686
						}
					}
				}
			}
		}
	}
	JOINT lowerback
	{
		OFFSET 0 0 0
		CHANNELS 3 Zrotation Yrotation Xrotation
		JOINT Chest
		{
			OFFSET -0.00200 1.66634 -0.14248
			CHANNELS 3 Zrotation Yrotation Xrotation
			JOINT Chest2
			{
				OFFSET -0.00875 1.64542 0.09514
				CHANNELS 3 Zrotation Yrotation Xrotation
				JOINT lowerneck
				{
					OFFSET 0 0 0
					CHANNELS 3 Zrotation Yrotation Xrotation
					JOINT Neck
					{
						OFFSET 0.02257 1.59605 0.00839
						CHANNELS 3 Zrotation Yrotation Xrotation
						JOINT Head
						{
							OFFSET -0.10214 1.57530 -0.23335
							CHANNELS 3 Zrotation Yrotation Xrotation
							End Site
							{
								OFFSET -0.03588 1.60717 -0.08062
							}
						}
					}
				}
				JOINT LeftCollar
				{
					OFFSET 0 0 0
					CHANNELS 3 Zrotation Yrotation Xrotation
					JOINT LeftShoulder
					{
						OFFSET 2.54983 1.10186 0.40078
CHANNELS 3 Zrotation Xrotation Yrotation
						JOINT LeftElbow
						{
OFFSET 0 -4.288400 0.000000
CHANNELS 3 Zrotation Xrotation Yrotation
							JOINT LeftWrist
							{
OFFSET 0 -3.065520 -0.000000
CHANNELS 3 Zrotation Xrotation Yrotation
								JOINT lhand
								{
									OFFSET 0 0 0
CHANNELS 3 Zrotation Xrotation Yrotation
									JOINT LFingers
									{
OFFSET 0 -0.753040 0.000000
CHANNELS 3 Zrotation Xrotation Yrotation
										End Site
										{
OFFSET 0 -0.607120 0.000000
										}
									}
								}
								JOINT LThumb
								{
OFFSET 0 0.000000 0.000000
CHANNELS 3 Zrotation Xrotation Yrotation
									End Site
									{
OFFSET 0 -0.616390 0.616390
									}
								}
							}
						}
					}
				}
				JOINT RightCollar
				{
					OFFSET 0 0 0
					CHANNELS 3 Zrotation Yrotation Xrotation
					JOINT RightShoulder
					{
						OFFSET -2.60909 1.35448 0.21802
CHANNELS 3 Zrotation Xrotation Yrotation
						JOINT RightElbow
						{
OFFSET 0 -4.521720 -0.000000
CHANNELS 3 Zrotation Xrotation Yrotation
							JOINT RightWrist
							{
OFFSET 0 -2.891400 0.000000
CHANNELS 3 Zrotation Xrotation Yrotation
								JOINT rhand
								{
									OFFSET 0 0 0
CHANNELS 3 Zrotation Xrotation Yrotation
									JOINT RFingers
									{
OFFSET 0 -0.680540 0.000000
CHANNELS 3 Zrotation Xrotation Yrotation
										End Site
										{
OFFSET 0 -0.548670 0.000000
										}
									}
								}
								JOINT RThumb
								{
OFFSET 0 0.000000 0.000000
CHANNELS 3 Zrotation Xrotation Yrotation
									End Site
									{
OFFSET 0 -0.557050 0.557050
									}
								}
							}
						}
					}
				}
			}
		}
	}
}
MOTION
Frames: 9
Frame Time: 0.008333333333333333
9.522661 15.428199 -38.311094 -5.460481 0.781690 363.605083 0.000000 0.000000 0.000000 -19.955731 -31.336210 -3.383714 3.304552 11.172526 32.863847 1.788369 9.205828 -30.005169 3.774177 -11.853706 -35.216275 0.000000 0.000000 0.000000 30.569978 11.234687 -3.727487 -1.956914 -8.775740 25.096148 -0.840180 -3.299411 -18.812328 -0.320380 3.638247 -10.060953 -6.709825 2.069884 8.718655 -3.853391 1.779257 -1.343801 -0.538690 1.038439 -6.411970 -2.363946 0.748245 -6.711923 3.479286 0.691643 47.235434 2.259056 0.236793 19.290107 0.000000 0.000000 0.000000 10.008641 7.608185 -19.502955 19.335150 -29.833015 5.196525 11.973959 6.827415 31.952819 0.000000 0.000000 0.000000 -7.125000 0.000000 0.000000 -11.142097 -2.001677 -11.745851 0.000000 0.000000 0.000000 -6.851251 11.526489 47.408185 -22.708121 -33.768103 -6.975401 -2.732686 15.705151 49.495787 0.000000 0.000000 0.000000 7.125000 0.000000 0.000000 61.408461 70.965812 -42.644221
9.604740 15.440980 -38.295373 -5.545143 0.365734 363.825274 0.000000 0.000000 0.000000 -20.436489 -32.084328 -2.796164 3.233230 11.063445 32.494055 1.763598 10.070414 -30.444565 3.543129 -11.526307 -34.076086 0.000000 0.000000 0.000000 30.116254 11.089195 -4.682486 -2.125775 -9.123256 26.181645 -0.813192 -2.695998 -18.214814 -0.450366 4.305267 -11.937241 -6.932761 2.196334 8.191466 -3.607079 2.002710 -1.177328 -0.160758 1.149224 -5.961187 -2.280988 0.767658 -6.659899 3.214042 0.814647 47.261369 2.132881 0.268496 19.290111 0.000000 0.000000 0.000000 9.240935 9.691556 -20.273020 18.735406 -29.088603 4.901612 11.518186 9.107644 30.910190 0.000000 0.000000 0.000000 -7.125000 0.000000 0.000000 -11.319725 -0.910317 -11.727979 0.000000 0.000000 0.000000 -7.138429 11.440453 46.677586 -22.623314 -33.674291 -6.928296 -3.637520 16.490403 49.587955 0.000000 0.000000 0.000000 7.125000 0.000000 0.000000 60.994399 71.324713 -42.701135
9.692626 15.447625 -38.296287 -5.473028 0.345542 363.776711 0.000000 0.000000 0.000000 -21.090888 -32.505652 -2.273347 3.161621 10.952216 32.118940 1.723226 10.433110 -30.446874 3.263214 -11.109354 -32.649701 0.000000 0.000000 0.000000 29.486087 10.833808 -5.380331 -2.277876 -9.422302 27.125624 -0.753385 -1.607529 -17.053579 -0.221189 3.024235 -8.346382 -6.638404 2.177937 8.496664 -3.681464 1.968325 -1.264598 -0.412794 1.127145 -6.211886 -2.330887 0.758114 -6.520396 3.139063 0.842298 47.241625 2.106003 0.261624 19.235811 0.000000 0.000000 0.000000 9.416161 10.510502 -21.465735 18.387894 -28.650975 4.733776 10.562940 10.346979 30.872989 0.000000 0.000000 0.000000 -7.125000 0.000000 0.000000 -11.860182 -0.741232 -12.277465 0.000000 0.000000 0.000000 -6.714523 11.325342 46.769860 -23.176577 -34.281324 -7.237552 -2.560605 15.322768 51.055222 0.000000 0.000000 0.000000 7.125000 0.000000 0.000000 65.707535 71.570038 -47.044320
9.786290 15.452405 -38.306807 -5.503780 0.279855 363.661045 0.000000 0.000000 0.000000 -21.518554 -32.386233 -1.964604 3.066226 10.801410 31.613113 1.688533 10.493936 -30.270155 3.129078 -10.901171 -31.947271 0.000000 0.000000 0.000000 29.034519 11.015323 -5.637655 -2.411978 -9.675981 27.933747 -0.756736 -1.640385 -17.105332 -0.288700 3.455283 -9.549049 -6.442645 2.292275 8.204619 -3.549543 2.181700 -1.201818 -0.397912 1.222979 -5.984735 -2.225035 0.755023 -6.462481 3.005795 0.878983 47.302535 2.030013 0.283328 19.262339 0.000000 0.000000 0.000000 10.102310 10.231626 -24.276697 18.716667 -29.065058 4.892418 11.087112 9.685352 31.547321 0.000000 0.000000 0.000000 -7.125000 0.000000 0.000000 -11.610384 -1.475210 -12.155282 0.000000 0.000000 0.000000 -6.289335 11.028216 46.991241 -24.140248 -35.312251 -7.787500 -2.338853 14.614535 51.209264 0.000000 0.000000 0.000000 7.125000 0.000000 0.000000 66.276142 71.551429 -47.524510
9.885856 15.453347 -38.310858 -5.612277 1.057749 363.575249 0.000000 0.000000 0.000000 -21.902380 -32.879040 -1.687118 3.022984 10.732189 31.381987 1.685093 9.472696 -29.518974 2.648289 -10.102589 -29.309557 0.000000 0.000000 0.000000 28.831004 10.986621 -5.843873 -2.495697 -9.830091 28.428208 -0.724429 -2.501293 -17.172940 -0.415942 4.139630 -11.469822 -6.233400 2.070142 7.689833 -3.319421 1.971722 -1.173122 -0.221671 1.111982 -5.651173 -2.439733 0.529137 -6.349721 2.829301 0.648303 47.254493 1.942015 0.135068 19.210873 0.000000 0.000000 0.000000 10.348312 8.391552 -25.305867 19.332756 -29.830013 5.195363 7.585919 9.929819 29.412864 0.000000 0.000000 0.000000 -7.125000 0.000000 0.000000 -13.485129 1.056023 -13.619152 0.000000 0.000000 0.000000 -6.071521 10.756886 47.979889 -25.340125 -36.549608 -8.491673 -5.283306 15.466390 48.283596 0.000000 0.000000 0.000000 7.125000 0.000000 0.000000 56.355167 71.262202 -38.788867
10.002841 15.456003 -38.327838 -5.506755 0.965278 363.383032 0.000000 0.000000 0.000000 -22.540417 -32.345694 -1.337499 2.904791 10.539297 30.741483 1.590837 9.626215 -29.003386 2.822405 -10.401632 -30.287447 0.000000 0.000000 0.000000 28.161886 11.011591 -6.764456 -2.790259 -10.347448 30.109569 -0.677531 -2.315020 -16.556607 -0.378760 3.951906 -10.941522 -6.043133 1.931830 7.474379 -3.396694 1.811056 -1.345349 -0.384641 1.029191 -5.694121 -2.210354 0.615340 -6.481066 2.627093 0.809132 47.360982 1.830663 0.209564 19.317732 0.000000 0.000000 0.000000 10.729332 6.377490 -24.938156 19.440987 -29.962933 5.249253 11.161779 8.378856 31.320945 0.000000 0.000000 0.000000 -7.125000 0.000000 0.000000 -11.551640 -1.263521 -12.049114 0.000000 0.000000 0.000000 -5.583843 10.630190 47.748268 -26.368869 -37.570611 -9.111663 -4.858005 14.571635 46.622396 0.000000 0.000000 0.000000 7.125000 0.000000 0.000000 52.687729 70.202718 -34.748935
10.126919 15.433910 -38.342665 -5.203464 -0.016215 362.852389 0.000000 0.000000 0.000000 -23.696556 -31.439129 -0.326314 2.719318 10.226137 29.712429 1.589447 9.880320 -29.177197 2.669472 -10.139335 -29.429610 0.000000 0.000000 0.000000 26.863021 10.912529 -8.858691 -3.571418 -11.566724 34.216548 -0.583525 0.430891 -14.290903 -0.374126 3.921080 -10.855826 -6.239370 1.839635 7.134876 -3.505053 1.689003 -1.434029 -0.364383 0.973093 -5.593225 -2.024507 0.764770 -6.676185 1.906143 1.295778 47.454169 1.520665 0.332007 19.430830 0.000000 0.000000 0.000000 11.060143 4.237960 -23.480816 19.189592 -29.653547 5.124279 14.142062 7.478753 33.589398 0.000000 0.000000 0.000000 -7.125000 0.000000 0.000000 -10.085986 -3.955653 -10.923418 0.000000 0.000000 0.000000 -5.506684 10.399012 47.483810 -27.145829 -38.317916 -9.589458 -3.834476 14.050643 47.601424 0.000000 0.000000 0.000000 7.125000 0.000000 0.000000 55.838485 70.399852 -37.439469
10.249465 15.498289 -38.335099 -4.706494 -1.906655 362.293975 0.000000 0.000000 0.000000 -25.573641 -31.028145 2.798363 2.149663 9.170963 26.331574 1.363090 11.580139 -28.959692 1.781838 -8.393610 -23.917487 0.000000 0.000000 0.000000 24.901653 12.645037 -13.845305 -5.617020 -14.046045 43.423633 -0.365846 0.270308 -11.333050 -1.720941 8.257390 -23.499602 -6.583641 1.668533 6.977847 -3.744080 1.410680 -1.719938 -0.393096 0.850672 -5.799562 -1.658415 1.250824 -6.669019 -0.243046 2.878445 46.985274 0.639148 0.744587 19.132159 0.000000 0.000000 0.000000 12.099775 3.766469 -23.707909 20.415263 -31.139315 5.744569 13.487283 5.497015 31.868914 0.000000 0.000000 0.000000 -7.125000 0.000000 0.000000 -10.283977 -2.150811 -10.834694 0.000000 0.000000 0.000000 -5.644504 10.447150 46.678385 -27.208496 -38.377245 -9.628305 -4.063241 14.632926 46.244570 0.000000 0.000000 0.000000 7.125000 0.000000 0.000000 52.522959 69.715568 -34.109535
10.334693 15.516531 -38.298595 -4.061990 -3.771523 360.933127 0.000000 0.000000 0.000000 -28.751420 -32.061334 8.013641 1.686958 8.181082 23.265334 1.202937 14.522242 -30.455507 0.992860 -6.341693 -17.779001 0.000000 0.000000 0.000000 23.091841 13.863162 -19.032761 -8.026141 -16.138192 52.656398 -0.375867 0.514697 -11.410364 -2.868170 10.478342 -30.540137 -6.983607 1.236768 7.374878 -4.007650 0.733922 -1.810774 -0.376464 0.533452 -6.098375 -1.542073 1.901765 -7.115108 -4.538185 5.767269 46.459138 -1.007625 1.346179 19.197142 0.000000 0.000000 0.000000 13.517094 4.207280 -22.951868 20.567179 -31.319522 5.823312 13.003640 5.144549 31.873671 0.000000 0.000000 0.000000 -7.125000 0.000000 0.000000 -10.556130 -2.079380 -11.119632 0.000000 0.000000 0.000000 -5.897353 11.207268 45.771765 -27.480637 -38.633537 -9.797733 -2.310339 12.610826 48.358874 0.000000 0.000000 0.000000 7.125000 0.000000 0.000000 58.896111 70.268725 -39.773131
